<?xml version="1.0" standalone="no"?><!DOCTYPE svg PUBLIC "-//W3C//DTD SVG 1.1//EN" "http://www.w3.org/Graphics/SVG/1.1/DTD/svg11.dtd"><svg t="1581759443458" class="icon" viewBox="0 0 1605 1024" version="1.1" xmlns="http://www.w3.org/2000/svg" p-id="3731" xmlns:xlink="http://www.w3.org/1999/xlink" width="313.4765625" height="200"><defs><style type="text/css"></style></defs><path d="M1387.81684148 511.70975439c0 14.512273-4.35368212 29.31479163-12.91592247 44.11731025-60.37105553 98.39321066-141.78490651 177.33997569-243.95130878 236.55004874C1028.6380855 851.73231032 920.81189764 881.33734684 807.18080029 881.33734684s-221.45728522-29.75015969-323.62368678-89.1053559c-102.16640155-59.5003194-183.58025326-138.30196125-244.09643121-236.25980386-8.56224106-14.94764107-12.91592319-29.75015969-12.9159232-44.26243269 0-14.65739544 4.35368212-29.31479163 12.91592319-44.26243271C299.97686026 369.48947982 381.2455888 290.68783722 483.41199034 231.332641 585.72351506 171.83232161 693.54970293 142.08216192 807.18080029 142.08216192S1028.6380855 171.83232161 1130.80448778 231.18751783c102.16640155 59.5003194 183.43513008 138.1568388 243.95130807 236.1146814 8.70736351 15.09276425 13.06104563 29.89528214 13.06104563 44.40755516z m-83.01020154 0C1239.21116617 410.70433459 1156.92657905 335.24051554 1057.95287714 285.17317335c26.26721372 44.40755515 39.47338252 92.58830118 39.47338252 144.39711636 0 79.09188747-28.44405477 146.71907987-85.18704259 203.0266989-56.74298709 56.16249658-125.24091562 84.31630573-205.05841678 84.31630573-79.96262435 0-148.31542969-28.15380987-205.20353995-84.31630573s-85.18704259-123.93481142-85.18704187-203.0266989c0-51.80881447 13.20616808-99.98956048 39.47338252-144.39711636C457.43502225 335.24051554 375.1504344 410.70433459 309.40983745 511.70975439c57.46860078 87.65412855 129.44947456 157.60328445 216.23286771 209.55722207 86.49314678 51.95393691 180.38755289 77.93090572 281.53809513 77.93090572 101.00541979 0 194.8998259-25.97696881 281.53809586-77.93090572 86.63826923-51.95393691 158.61914375-121.9030928 216.08774379-209.55722207zM829.23945505 287.05976879c5.95003194-5.95003194 8.99760914-13.20616808 8.99760915-21.9135316 0-8.56224106-3.0475772-15.81837721-8.99760915-21.76840986-6.09515438-5.95003194-13.35129125-8.99760914-22.05865476-8.99760914-53.98565552 0-100.42492856 19.15620001-139.02757494 57.46860078-38.60264638 38.16727758-57.90396885 84.02606012-57.90396885 137.57634757 0 8.56224106 3.0475772 15.81837721 8.99760914 21.76840986 6.09515438 5.95003194 13.49641371 8.99760914 22.05865476 8.99760914 8.56224106 0 15.96350037-3.0475772 21.91353232-8.99760914 5.95003194-6.09515438 8.99760914-13.35129125 8.99760913-21.76840986 0-36.86117339 13.20616808-68.2076829 39.47338251-94.32977417 26.41233689-26.12209126 58.19421447-39.18313689 95.34563348-39.18313689 8.85248668 0.14512244 16.10862282-2.75733158 22.20377721-8.8524867z m0-1e-8" p-id="3732"></path></svg>