<?xml version="1.0" standalone="no"?><!DOCTYPE svg PUBLIC "-//W3C//DTD SVG 1.1//EN" "http://www.w3.org/Graphics/SVG/1.1/DTD/svg11.dtd"><svg t="1571211541907" class="icon" viewBox="0 0 1024 1024" version="1.1" xmlns="http://www.w3.org/2000/svg" p-id="29813" xmlns:xlink="http://www.w3.org/1999/xlink" width="14" height="14"><defs><style type="text/css"></style></defs><path d="M704.238205 0.003878H319.761795C249.310861-0.542254 192.51321 56.801529 191.967079 126.706331v769.498953c0 70.450933 57.343783 127.794716 127.794716 127.794716h383.930279c70.450933 0 127.794716-56.797652 127.794716-127.248585V127.798594C832.032921 57.34766 774.689139 0.003878 704.238205 0.003878zM512 960.102642c-42.598239 0-77.004508-34.40627-77.004508-77.004508s34.40627-77.004508 77.004508-77.004509 77.004508 34.40627 77.004508 77.004509-34.40627 77.004508-77.004508 77.004508z m230.467394-230.467394H281.532606V147.459319c0-32.221745 26.214301-57.889914 57.343783-57.889914h346.247222c31.675613 0 57.343783 25.668169 57.343783 57.889914v582.175929z" p-id="29814"></path></svg>